
<svg xmlns="http://www.w3.org/2000/svg" version="1.1" width="357px" height="362px" style="shape-rendering:geometricPrecision; text-rendering:geometricPrecision; image-rendering:optimizeQuality; fill-rule:evenodd; clip-rule:evenodd" xmlns:xlink="http://www.w3.org/1999/xlink">
<g><path style="opacity:1" fill="#f2efe5" d="M -0.5,-0.5 C 118.5,-0.5 237.5,-0.5 356.5,-0.5C 356.5,120.167 356.5,240.833 356.5,361.5C 237.5,361.5 118.5,361.5 -0.5,361.5C -0.5,240.833 -0.5,120.167 -0.5,-0.5 Z"/></g>
<g><path style="opacity:1" fill="#dddfd9" d="M 44.5,120.5 C 42.6976,121.458 40.6976,122.125 38.5,122.5C 61.0938,72.0261 99.7605,42.5261 154.5,34C 189.692,30.2161 222.025,37.8828 251.5,57C 241.488,52.3167 231.155,47.9833 220.5,44C 156.071,26.6405 102.571,43.4738 60,94.5C 54.5702,103.029 49.4035,111.696 44.5,120.5 Z"/></g>
<g><path style="opacity:1" fill="#dbddd8" d="M 315.5,157.5 C 315.667,168.505 315.5,179.505 315,190.5C 313.307,196.854 309.14,200.354 302.5,201C 294.103,201.87 285.77,201.537 277.5,200C 274.732,198.238 273.232,195.738 273,192.5C 272.667,177.167 272.333,161.833 272,146.5C 268.714,142.515 265.381,142.515 262,146.5C 261.333,162.833 261.333,179.167 262,195.5C 266.135,209.404 275.469,215.071 290,212.5C 300.192,214.217 308.525,211.217 315,203.5C 315.667,210.833 315.667,218.167 315,225.5C 314.167,226.333 313.333,227.167 312.5,228C 300.167,228.667 287.833,228.667 275.5,228C 274.572,227.612 273.905,226.945 273.5,226C 272.879,222.814 272.212,219.648 271.5,216.5C 265.011,212.968 261.677,214.968 261.5,222.5C 261.832,231.339 266.165,237.173 274.5,240C 283.494,240.5 292.494,240.666 301.5,240.5C 277.328,287.784 238.661,314.618 185.5,321C 140.633,324.381 102.133,310.548 70,279.5C 54.0744,259.367 43.2411,236.7 37.5,211.5C 52.5105,212.966 67.5105,212.799 82.5,211C 85.7256,209.802 88.5589,207.969 91,205.5C 97.5363,194.19 98.203,182.523 93,170.5C 89.0494,164.621 83.5494,161.121 76.5,160C 66.1667,159.667 55.8333,159.333 45.5,159C 40.0643,156 37.731,151.334 38.5,145C 38.0314,140.064 39.6981,136.064 43.5,133C 53.7733,131.434 64.1066,131.101 74.5,132C 79.7959,134.129 83.1293,137.962 84.5,143.5C 89.708,145.893 92.708,144.393 93.5,139C 92.6025,130.194 87.9359,124.527 79.5,122C 70.2338,120.614 60.9005,120.114 51.5,120.5C 67.2638,87.9043 91.9305,64.7376 125.5,51C 179.306,32.1266 228.639,40.1266 273.5,75C 296.603,97.9174 310.603,125.417 315.5,157.5 Z"/></g>
<g><path style="opacity:1" fill="#852f7a" d="M 44.5,120.5 C 46.8333,120.5 49.1667,120.5 51.5,120.5C 60.9005,120.114 70.2338,120.614 79.5,122C 87.9359,124.527 92.6025,130.194 93.5,139C 92.708,144.393 89.708,145.893 84.5,143.5C 83.1293,137.962 79.7959,134.129 74.5,132C 64.1066,131.101 53.7733,131.434 43.5,133C 39.6981,136.064 38.0314,140.064 38.5,145C 37.731,151.334 40.0643,156 45.5,159C 55.8333,159.333 66.1667,159.667 76.5,160C 83.5494,161.121 89.0494,164.621 93,170.5C 98.203,182.523 97.5363,194.19 91,205.5C 88.5589,207.969 85.7256,209.802 82.5,211C 67.5105,212.799 52.5105,212.966 37.5,211.5C 27.975,207.794 23.475,200.794 24,190.5C 27.9948,186.336 31.4948,186.669 34.5,191.5C 35.259,194.849 36.9256,197.682 39.5,200C 51.776,201.584 64.1093,201.917 76.5,201C 80.808,199.696 83.308,196.862 84,192.5C 84.6667,187.833 84.6667,183.167 84,178.5C 83.2261,176.061 81.7261,174.227 79.5,173C 68.5717,171.735 57.5717,171.068 46.5,171C 42.9609,170.321 39.6276,169.154 36.5,167.5C 29.4262,161.566 26.4262,153.899 27.5,144.5C 26.937,134.959 30.6037,127.626 38.5,122.5C 40.6976,122.125 42.6976,121.458 44.5,120.5 Z"/></g>
<g><path style="opacity:1" fill="#974289" d="M 126.5,128.5 C 129.685,128.02 132.519,128.686 135,130.5C 135.499,134.821 135.666,139.154 135.5,143.5C 141.509,143.334 147.509,143.501 153.5,144C 157.738,146.172 158.572,149.338 156,153.5C 155.25,154.126 154.416,154.626 153.5,155C 147.509,155.499 141.509,155.666 135.5,155.5C 135.097,168.885 135.597,182.218 137,195.5C 138.046,197.09 139.213,198.59 140.5,200C 144.749,201.126 149.082,201.792 153.5,202C 157.118,204.931 157.451,208.265 154.5,212C 141.604,214.943 132.104,210.777 126,199.5C 124.587,184.884 124.087,170.217 124.5,155.5C 120.416,155.957 116.583,155.29 113,153.5C 111.192,144.152 115.025,140.819 124.5,143.5C 124.334,139.154 124.501,134.821 125,130.5C 125.717,129.956 126.217,129.289 126.5,128.5 Z"/></g>
<g><path style="opacity:1" fill="#a95699" d="M 192.5,143.5 C 201.235,143.124 209.902,143.624 218.5,145C 228.225,147.392 233.725,153.559 235,163.5C 235.667,178.833 235.667,194.167 235,209.5C 234.626,210.416 234.126,211.25 233.5,212C 230.833,212.667 228.167,212.667 225.5,212C 224.598,209.798 223.598,207.632 222.5,205.5C 218.978,209.261 214.645,211.427 209.5,212C 201.5,212.667 193.5,212.667 185.5,212C 175.427,208.159 171.094,200.826 172.5,190C 171.617,178.565 176.617,171.231 187.5,168C 199.495,167.5 211.495,167.333 223.5,167.5C 223.43,161.86 220.763,158.027 215.5,156C 206.424,155.087 197.424,155.42 188.5,157C 186.15,159.419 183.816,161.752 181.5,164C 175.657,165.359 173.157,163.192 174,157.5C 175.743,152.09 179.243,148.256 184.5,146C 187.31,145.218 189.977,144.384 192.5,143.5 Z"/></g>
<g><path style="opacity:1" fill="#bb67a8" d="M 315.5,157.5 C 315.335,153.818 315.501,150.152 316,146.5C 318.971,142.908 322.304,142.575 326,145.5C 326.667,173.5 326.667,201.5 326,229.5C 320.36,238.397 312.194,242.064 301.5,240.5C 292.494,240.666 283.494,240.5 274.5,240C 266.165,237.173 261.832,231.339 261.5,222.5C 261.677,214.968 265.011,212.968 271.5,216.5C 272.212,219.648 272.879,222.814 273.5,226C 273.905,226.945 274.572,227.612 275.5,228C 287.833,228.667 300.167,228.667 312.5,228C 313.333,227.167 314.167,226.333 315,225.5C 315.667,218.167 315.667,210.833 315,203.5C 308.525,211.217 300.192,214.217 290,212.5C 275.469,215.071 266.135,209.404 262,195.5C 261.333,179.167 261.333,162.833 262,146.5C 265.381,142.515 268.714,142.515 272,146.5C 272.333,161.833 272.667,177.167 273,192.5C 273.232,195.738 274.732,198.238 277.5,200C 285.77,201.537 294.103,201.87 302.5,201C 309.14,200.354 313.307,196.854 315,190.5C 315.5,179.505 315.667,168.505 315.5,157.5 Z"/></g>
<g><path style="opacity:1" fill="#dbddd8" d="M 36.5,167.5 C 39.6276,169.154 42.9609,170.321 46.5,171C 57.5717,171.068 68.5717,171.735 79.5,173C 81.7261,174.227 83.2261,176.061 84,178.5C 84.6667,183.167 84.6667,187.833 84,192.5C 83.308,196.862 80.808,199.696 76.5,201C 64.1093,201.917 51.776,201.584 39.5,200C 36.9256,197.682 35.259,194.849 34.5,191.5C 35.3381,183.66 36.0048,175.66 36.5,167.5 Z"/></g>
<g><path style="opacity:1" fill="#dbdcd8" d="M 187.5,179.5 C 199.5,179.5 211.5,179.5 223.5,179.5C 225.029,196.465 217.196,203.798 200,201.5C 186.289,203.753 180.956,198.086 184,184.5C 184.997,182.677 186.164,181.01 187.5,179.5 Z"/></g>
</svg>
